<?xml version="1.0" encoding="UTF-8"?>
<!DOCTYPE svg PUBLIC "-//W3C//DTD SVG 1.1//EN" "http://www.w3.org/Graphics/SVG/1.1/DTD/svg11.dtd">
<!-- Creator: CorelDRAW X6 -->
<svg xmlns="http://www.w3.org/2000/svg" xml:space="preserve" width="79in" height="18.1944in" version="1.1" style="shape-rendering:geometricPrecision; text-rendering:geometricPrecision; image-rendering:optimizeQuality; fill-rule:evenodd; clip-rule:evenodd"
viewBox="0 0 79000 18194"
 xmlns:xlink="http://www.w3.org/1999/xlink">
 <defs>
  <style type="text/css">
   <![CDATA[
    .fil5 {fill:#23242B;fill-rule:nonzero}
    .fil31 {fill:#252030;fill-rule:nonzero}
    .fil26 {fill:#282333;fill-rule:nonzero}
    .fil18 {fill:#30323D;fill-rule:nonzero}
    .fil22 {fill:#3B3348;fill-rule:nonzero}
    .fil13 {fill:#494343;fill-rule:nonzero}
    .fil32 {fill:#565050;fill-rule:nonzero}
    .fil9 {fill:#686363;fill-rule:nonzero}
    .fil2 {fill:#6D311F;fill-rule:nonzero}
    .fil28 {fill:#753C36;fill-rule:nonzero}
    .fil4 {fill:#7C3B24;fill-rule:nonzero}
    .fil27 {fill:#8C4F45;fill-rule:nonzero}
    .fil17 {fill:#964545;fill-rule:nonzero}
    .fil35 {fill:#9E3A20;fill-rule:nonzero}
    .fil20 {fill:#A09C9C;fill-rule:nonzero}
    .fil16 {fill:#AA5854;fill-rule:nonzero}
    .fil34 {fill:#C1947E;fill-rule:nonzero}
    .fil21 {fill:#C1BDBD;fill-rule:nonzero}
    .fil30 {fill:#CE4C3E;fill-rule:nonzero}
    .fil6 {fill:#CE6565;fill-rule:nonzero}
    .fil25 {fill:#CEA289;fill-rule:nonzero}
    .fil19 {fill:#D3CFCF;fill-rule:nonzero}
    .fil39 {fill:#D6B792;fill-rule:nonzero}
    .fil33 {fill:#D6C9BD;fill-rule:nonzero}
    .fil3 {fill:#D87E66;fill-rule:nonzero}
    .fil7 {fill:#D8C7C7;fill-rule:nonzero}
    .fil37 {fill:#DB715D;fill-rule:nonzero}
    .fil24 {fill:#DDD3CA;fill-rule:nonzero}
    .fil29 {fill:#E45E4B;fill-rule:nonzero}
    .fil15 {fill:#E5D5B1;fill-rule:nonzero}
    .fil11 {fill:#E8BA7C;fill-rule:nonzero}
    .fil1 {fill:#EA997D;fill-rule:nonzero}
    .fil38 {fill:#EBCFA9;fill-rule:nonzero}
    .fil12 {fill:#EFCBB4;fill-rule:nonzero}
    .fil8 {fill:#EFEAEA;fill-rule:nonzero}
    .fil0 {fill:#F5DFD4;fill-rule:nonzero}
    .fil23 {fill:#F5EBE2;fill-rule:nonzero}
    .fil36 {fill:#FCCF8D;fill-rule:nonzero}
    .fil10 {fill:#FED190;fill-rule:nonzero}
    .fil14 {fill:white;fill-rule:nonzero}
   ]]>
  </style>
 </defs>
 <g id="Layer_x0020_1">
  <metadata id="CorelCorpID_0Corel-Layer"/>
  <polygon class="fil0" points="0,18194 79000,18194 79000,0 0,0 "/>
  <polygon class="fil1" points="69803,18194 68658,18194 68807,16113 69986,16173 "/>
  <polygon class="fil1" points="75075,18194 76220,18194 76072,16113 74892,16173 "/>
  <path class="fil2" d="M70499 11329c0,0 -719,569 -125,1307 593,738 -1006,1315 -465,2138 541,824 2556,758 2556,758 0,0 2460,113 2629,-760 170,-873 -1080,-1747 -710,-2141 392,-417 577,-906 127,-1408l-1263 -1473 -1561 0 -1188 1578z"/>
  <path class="fil1" d="M71775 11639c0,0 44,1043 0,1210 -44,167 -451,448 -869,644 0,0 538,739 1588,717 1050,-22 1313,-455 1480,-694 0,0 -798,-297 -817,-638 -19,-341 0,-1238 0,-1238l-1382 0z"/>
  <path class="fil3" d="M72457 12644c332,0 563,-240 693,-419 2,-302 8,-587 8,-587l-1382 0c0,0 12,284 17,573 111,181 324,433 665,433z"/>
  <path class="fil1" d="M71394 10487c0,0 -67,-197 -331,-174 -255,22 -169,678 56,786 225,108 299,-218 299,-218l-24 -394z"/>
  <path class="fil1" d="M73629 10487c0,0 67,-197 331,-174 255,22 169,678 -56,786 -225,108 -299,-218 -299,-218l24 -394z"/>
  <path class="fil1" d="M73847 10228c-113,1403 -649,2076 -1336,2076 -683,0 -1228,-556 -1335,-2076 -79,-1122 509,-1817 1335,-1817 827,0 1429,651 1336,1817z"/>
  <path class="fil2" d="M71502 10252c-12,1 -24,-3 -34,-11 -21,-17 -24,-49 -7,-70 74,-90 256,-281 542,-112 24,14 37,41 25,66 -11,25 -41,36 -66,25 -256,-115 -422,82 -423,84 -10,11 -23,18 -37,18z"/>
  <path class="fil2" d="M73530 10250c12,0 24,-3 33,-11 22,-18 24,-49 6,-70 -74,-89 -259,-278 -543,-106 -24,14 -36,41 -24,66 12,25 41,36 66,24 255,-118 423,78 424,80 10,11 23,17 37,18z"/>
  <path class="fil3" d="M72492 11263c-70,-2 -125,-21 -152,-73 -81,-161 73,-421 87,-453 10,-22 25,-35 47,-25 22,10 13,39 4,61 -47,105 -76,299 -33,373 8,12 20,27 54,30 24,2 41,23 40,48 -2,42 -46,40 -47,40z"/>
  <path class="fil4" d="M72465 8942c0,0 -546,-268 -896,858 -309,994 -535,1392 -1065,1552 0,0 359,-505 233,-1155 -108,-562 82,-1273 451,-1748 281,-361 708,-519 1280,-265 0,0 645,-467 1209,272 275,359 571,776 506,1737 0,0 -32,670 328,1053 0,0 -562,16 -1062,-1419 -413,-1185 -984,-885 -984,-885z"/>
  <path class="fil5" d="M73084 10542c0,53 38,96 83,96 46,0 83,-43 83,-96 0,-53 -37,-96 -83,-96 -46,0 -83,43 -83,96z"/>
  <path class="fil5" d="M71657 10542c0,53 38,96 83,96 46,0 83,-43 83,-96 0,-53 -37,-96 -83,-96 -46,0 -83,43 -83,96z"/>
  <path class="fil6" d="M72471 11655c-240,0 -403,-115 -414,-123 -20,-15 -25,-44 -10,-64 15,-21 44,-25 65,-10 14,10 333,232 731,-2 22,-13 50,-6 63,16 13,22 5,50 -17,63 -153,90 -296,120 -418,120z"/>
  <path class="fil7" d="M71504 11002c0,0 -82,-320 -207,-447l-25 52c0,0 121,194 182,431l50 -37z"/>
  <path class="fil7" d="M71518 11621c0,0 -165,-373 -207,-516 0,0 15,304 218,593l-11 -77z"/>
  <path class="fil7" d="M73538 11035c0,0 85,-397 209,-517l27 50c0,0 -135,299 -196,536l-40 -70z"/>
  <path class="fil7" d="M73500 11627c0,0 166,-392 209,-535 0,0 -15,324 -209,612l0 -77z"/>
  <path class="fil8" d="M71409 11105c0,0 -15,-84 88,-127 103,-43 772,-267 943,-267 171,0 917,237 1081,296 60,22 68,72 67,173 0,40 -18,1238 -1148,1195 -1129,-43 -1032,-1270 -1032,-1270z"/>
  <path class="fil9" d="M72060 10976c-17,0 -33,-10 -40,-27 -9,-22 3,-47 24,-55 55,-21 334,-127 429,-119 93,7 356,108 386,119 22,8 33,33 25,55 -9,22 -33,33 -55,25 -78,-30 -294,-108 -362,-114 -58,-5 -270,67 -390,114 -5,2 -10,3 -16,3z"/>
  <path class="fil7" d="M72452 10903c0,0 22,987 16,1044 -5,57 191,-385 -16,-1044z"/>
  <path class="fil10" d="M71251 13265c0,0 236,508 1163,508 928,0 1107,-510 1107,-510 0,0 1794,853 1921,957 128,103 596,225 1061,2836l-1467 335 24 804 -5280 0 -14 -804 -1279 -356c0,0 352,-1968 776,-2520 424,-551 1988,-1249 1988,-1249z"/>
  <path class="fil11" d="M69955 18194c0,0 -120,-2274 -223,-2727l48 2727 175 0z"/>
  <path class="fil11" d="M74885 18194c0,0 119,-2274 222,-2727l-47 2727 -175 0z"/>
  <path class="fil1" d="M23661 11431c0,0 55,1297 0,1508 -55,210 -570,556 -1097,803 0,0 678,928 2004,900 1326,-27 1662,-576 1873,-878 0,0 -1011,-357 -1036,-787 -24,-430 0,-1545 0,-1545l-1745 0z"/>
  <path class="fil3" d="M24521 12661c419,0 711,-283 875,-509 3,-382 10,-722 10,-722l-1745 0c0,0 15,339 21,704 140,228 409,527 839,527z"/>
  <path class="fil1" d="M23369 10171c0,0 -72,-212 -356,-187 -275,24 -181,730 60,846 242,116 321,-234 321,-234l-25 -424z"/>
  <path class="fil1" d="M25774 10171c0,0 72,-212 357,-187 275,24 181,730 -60,846 -242,116 -321,-234 -321,-234l25 -424z"/>
  <path class="fil1" d="M26008 10116c-121,1509 -544,2234 -1437,2234 -893,0 -1321,-598 -1437,-2234 -85,-1208 548,-1954 1437,-1954 889,0 1537,701 1437,1954z"/>
  <path class="fil5" d="M23827 10359c0,57 -40,103 -90,103 -50,0 -90,-46 -90,-103 0,-57 40,-103 90,-103 50,0 90,46 90,103z"/>
  <path class="fil5" d="M25462 10359c0,57 -40,103 -90,103 -50,0 -90,-46 -90,-103 0,-57 40,-103 90,-103 50,0 90,46 90,103z"/>
  <path class="fil12" d="M23428 10031c-13,0 -26,-5 -36,-14 -22,-20 -24,-54 -4,-76 84,-93 290,-289 588,-92 25,16 37,46 23,72 -13,26 -46,37 -72,23 -270,-137 -458,66 -460,69 -11,12 -25,18 -40,18z"/>
  <path class="fil12" d="M25747 10031c13,0 26,-5 36,-14 22,-20 24,-54 4,-76 -84,-93 -290,-289 -588,-92 -25,16 -37,46 -23,72 13,26 46,37 72,23 270,-137 458,66 460,69 11,12 25,18 40,18z"/>
  <path class="fil3" d="M24549 11230c-75,-2 -135,-23 -163,-79 -88,-173 79,-453 94,-488 11,-24 27,-38 51,-27 24,11 15,42 4,66 -51,113 -82,321 -36,401 8,13 21,29 58,32 26,2 44,25 43,51 -2,45 -50,43 -51,43z"/>
  <path class="fil12" d="M23046 9982c0,0 -229,-1396 418,-1890 647,-494 1577,-529 1999,10 0,0 635,-31 695,662 52,609 -62,1218 -62,1218 0,0 -63,132 -95,227 0,0 -168,-1092 -628,-1364 0,0 -500,543 -1325,710 0,0 63,-92 116,-167 0,0 -368,304 -635,361 -315,67 -389,410 -385,460l-96 -227z"/>
  <path class="fil6" d="M24589 11627c-240,0 -403,-115 -413,-123 -21,-15 -25,-44 -10,-65 15,-21 44,-25 64,-10 14,10 333,232 731,-2 22,-13 50,-6 63,16 13,22 6,50 -16,63 -153,90 -296,120 -419,120z"/>
  <path class="fil7" d="M23454 10817c0,0 -257,-692 -396,-859l-40 0c0,0 312,635 381,901l55 -42z"/>
  <path class="fil7" d="M23470 11508c0,0 -184,-416 -231,-576 0,0 17,339 243,661l-12 -85z"/>
  <path class="fil7" d="M25724 10841c0,0 232,-716 371,-883l29 0c0,0 -286,690 -354,955l-45 -72z"/>
  <path class="fil7" d="M25667 11515c0,0 195,-432 242,-592 0,0 -20,356 -242,678l0 -86z"/>
  <path class="fil9" d="M23347 10932c0,0 -17,-94 98,-142 115,-48 862,-298 1053,-298 191,0 1023,264 1206,330 67,24 75,80 74,193 0,44 -20,1382 -1280,1334 -1260,-48 -1152,-1417 -1152,-1417z"/>
  <path class="fil7" d="M24074 10787c-19,0 -37,-12 -45,-31 -9,-25 3,-52 27,-62 61,-24 373,-141 478,-133 104,8 398,120 431,133 25,9 37,37 27,62 -9,25 -37,37 -62,27 -87,-33 -328,-121 -404,-127 -65,-5 -302,75 -436,127 -6,2 -12,3 -17,3z"/>
  <path class="fil13" d="M24511 10706c0,0 24,1101 18,1165 -6,64 213,-430 -18,-1165z"/>
  <path class="fil14" d="M24361 11663c0,18 -14,32 -32,32l-409 0c-18,0 -32,-14 -32,-32l0 -450c0,-18 14,-32 32,-32l409 0c18,0 32,14 32,32l0 450z"/>
  <path class="fil15" d="M24014 11563c0,13 -14,20 -28,20l-16 0c-13,0 -26,-7 -26,-20l0 -143c0,-13 13,-18 26,-18l16 0c13,0 28,4 28,18l0 143z"/>
  <path class="fil15" d="M24097 11563c0,13 -2,20 -15,20l-16 0c-13,0 -24,-7 -24,-20l0 -143c0,-13 11,-18 24,-18l16 0c13,0 15,4 15,18l0 143z"/>
  <path class="fil15" d="M24194 11563c0,13 -4,20 -17,20l-16 0c-13,0 -23,-7 -23,-20l0 -143c0,-13 9,-18 23,-18l16 0c13,0 17,4 17,18l0 143z"/>
  <path class="fil15" d="M24306 11563c0,13 -20,20 -33,20l-16 0c-13,0 -35,-7 -35,-20l0 -143c0,-13 21,-18 35,-18l16 0c13,0 33,4 33,18l0 143z"/>
  <path class="fil16" d="M23319 13265c0,0 236,508 1164,508 928,0 1106,-510 1106,-510 0,0 2271,846 2398,949 127,103 702,1051 1189,3982l-9245 0c0,0 498,-3134 922,-3685 424,-551 2465,-1244 2465,-1244z"/>
  <path class="fil17" d="M21545 18194c0,0 -119,-2274 -223,-2727l48 2727 175 0z"/>
  <path class="fil17" d="M27430 18194c0,0 119,-2274 223,-2727l-48 2727 -175 0z"/>
  <path class="fil1" d="M18129 11458c0,0 55,1299 0,1510 -55,210 -570,557 -1097,804 0,0 679,928 2004,901 1326,-27 1570,-576 1781,-878 0,0 -919,-359 -943,-789 -24,-430 0,-1547 0,-1547l-1745 0z"/>
  <path class="fil3" d="M18989 12693c419,0 711,-286 875,-511 2,-382 10,-724 10,-724l-1745 0c0,0 15,341 21,706 140,228 409,529 839,529z"/>
  <path class="fil1" d="M17836 10203c0,0 -72,-212 -356,-187 -275,24 -182,730 60,846 242,116 321,-234 321,-234l-25 -424z"/>
  <path class="fil1" d="M20241 10203c0,0 72,-212 356,-187 275,24 182,730 -60,846 -242,116 -322,-234 -322,-234l26 -424z"/>
  <path class="fil1" d="M20475 10148c-121,1509 -544,2234 -1437,2234 -893,0 -1321,-598 -1437,-2234 -85,-1208 548,-1954 1437,-1954 889,0 1537,701 1437,1954z"/>
  <path class="fil5" d="M18294 10391c0,57 -40,103 -90,103 -50,0 -90,-46 -90,-103 0,-57 40,-103 90,-103 50,0 90,46 90,103z"/>
  <path class="fil5" d="M19929 10391c0,57 -40,103 -90,103 -50,0 -90,-46 -90,-103 0,-57 40,-103 90,-103 50,0 90,46 90,103z"/>
  <path class="fil18" d="M17896 10062c-13,0 -26,-5 -36,-14 -22,-20 -24,-54 -4,-76 84,-93 290,-289 588,-92 25,16 37,46 23,72 -13,26 -46,37 -72,23 -270,-137 -458,66 -460,68 -11,12 -25,18 -40,18z"/>
  <path class="fil18" d="M20214 10062c13,0 26,-5 36,-14 22,-20 24,-54 4,-76 -84,-93 -290,-289 -588,-92 -25,16 -37,46 -23,72 13,26 46,37 72,23 270,-137 458,66 460,68 11,12 25,18 40,18z"/>
  <path class="fil3" d="M19017 11262c-75,-2 -135,-23 -163,-79 -88,-173 78,-453 94,-488 11,-24 27,-38 51,-27 24,11 15,42 4,66 -51,113 -82,321 -36,401 8,13 21,29 58,32 26,2 44,25 43,51 -2,45 -50,43 -51,43z"/>
  <path class="fil18" d="M17924 10450c0,0 187,-425 64,-830 0,0 298,409 -64,830zm150 1492c63,-516 -150,-847 -150,-847 402,366 149,859 150,847zm874 -4089c-833,-598 -1839,-165 -1871,390 -22,381 266,838 87,1034 -864,954 246,828 -207,1845 -232,521 207,1034 207,1034 557,0 950,-73 950,-73 464,-1040 -542,-976 -95,-1633 374,-551 50,-670 20,-910 -143,-1132 434,-755 434,-755 528,-406 429,35 838,316 411,282 957,376 957,376l172 700 111 -71 87 -788c273,-1927 -1691,-1464 -1691,-1464z"/>
  <path class="fil6" d="M19023 11658c-240,0 -403,-115 -413,-123 -21,-15 -25,-44 -10,-65 15,-21 44,-25 64,-10 14,10 333,232 731,-2 22,-13 50,-6 63,16 13,22 6,50 -16,63 -153,90 -296,120 -419,120z"/>
  <path class="fil7" d="M20158 10885c0,0 265,-738 404,-871l25 1c0,0 -316,684 -384,949l-45 -78z"/>
  <path class="fil7" d="M20097 11546c0,0 230,-437 277,-597 0,0 -55,361 -277,683l0 -86z"/>
  <path class="fil19" d="M17781 10963c0,0 -17,-94 98,-142 115,-48 862,-298 1053,-298 191,0 1023,264 1206,330 67,24 75,80 74,193 0,44 -20,1382 -1280,1334 -1260,-48 -1152,-1417 -1152,-1417z"/>
  <path class="fil20" d="M18508 10819c-19,0 -37,-12 -44,-31 -10,-25 3,-52 27,-62 61,-24 373,-141 478,-133 104,8 398,120 431,133 25,9 37,37 27,62 -9,25 -37,37 -62,27 -87,-33 -328,-121 -404,-127 -65,-5 -302,75 -436,127 -6,2 -12,3 -17,3z"/>
  <path class="fil21" d="M18945 10738c0,0 24,1101 18,1165 -6,64 213,-430 -18,-1165z"/>
  <path class="fil21" d="M18759 11452c0,-137 -111,-249 -249,-249 -137,0 -249,111 -249,249 0,137 111,249 249,249 137,0 249,-111 249,-249z"/>
  <path class="fil14" d="M18730 11452c0,-121 -98,-220 -219,-220 -121,0 -219,98 -219,220 0,121 98,219 219,219 121,0 219,-98 219,-219z"/>
  <path class="fil15" d="M18340 11556l333 0c0,0 -37,104 -167,103 -130,-1 -167,-103 -167,-103z"/>
  <path class="fil22" d="M17141 13655l591 -334c0,0 261,631 1265,631 1004,0 1258,-519 1258,-519l588 323c0,0 -652,758 -1919,806 -1267,48 -1783,-906 -1783,-906z"/>
  <path class="fil23" d="M17339 13507c0,0 533,822 1585,822 1043,0 1651,-751 1651,-751 0,0 1723,667 2038,995 185,193 381,239 467,941 41,338 350,597 350,1169 0,489 232,1095 374,1512l-9566 0c0,0 202,-756 212,-1530 6,-441 445,-683 530,-1290 72,-515 165,-646 316,-804 551,-580 2043,-1063 2043,-1063z"/>
  <path class="fil24" d="M16043 18194c0,0 -119,-2274 -223,-2727l48 2727 175 0z"/>
  <path class="fil24" d="M21927 18194c0,0 119,-2274 223,-2727l-48 2727 -175 0z"/>
  <path class="fil1" d="M6267 11458c0,0 55,1299 0,1510 -55,211 -570,557 -1097,804 0,0 678,928 2004,900 1326,-27 1663,-576 1873,-878 0,0 -1011,-359 -1036,-789 -24,-430 0,-1547 0,-1547l-1745 0z"/>
  <path class="fil3" d="M7128 12693c419,0 711,-286 875,-511 2,-382 10,-724 10,-724l-1745 0c0,0 15,342 21,706 140,228 409,529 839,529z"/>
  <path class="fil1" d="M5975 10203c0,0 -72,-212 -356,-187 -275,24 -181,730 60,846 242,116 321,-234 321,-234l-25 -424z"/>
  <path class="fil1" d="M8380 10203c0,0 72,-212 356,-187 275,24 181,730 -60,846 -242,116 -322,-234 -322,-234l25 -424z"/>
  <path class="fil1" d="M8614 10148c-121,1509 -544,2234 -1437,2234 -893,0 -1321,-598 -1437,-2234 -85,-1208 548,-1954 1437,-1954 889,0 1537,701 1437,1954z"/>
  <path class="fil5" d="M6433 10391c0,57 -40,103 -90,103 -50,0 -90,-46 -90,-103 0,-57 40,-103 90,-103 50,0 90,46 90,103z"/>
  <path class="fil5" d="M8068 10391c0,57 -40,103 -90,103 -50,0 -90,-46 -90,-103 0,-57 40,-103 90,-103 50,0 90,46 90,103z"/>
  <path class="fil12" d="M6035 10062c-13,0 -26,-5 -36,-14 -22,-20 -24,-54 -4,-76 84,-93 290,-289 588,-92 25,16 37,46 23,72 -14,26 -46,37 -72,23 -270,-137 -458,66 -460,68 -11,12 -25,18 -40,18z"/>
  <path class="fil12" d="M8353 10062c13,0 26,-5 36,-14 22,-20 24,-54 4,-76 -84,-93 -290,-289 -588,-92 -25,16 -37,46 -23,72 14,26 46,37 72,23 270,-137 458,66 460,68 11,12 25,18 40,18z"/>
  <path class="fil3" d="M7156 11262c-75,-2 -135,-23 -163,-79 -88,-173 79,-453 94,-488 11,-24 27,-38 51,-27 24,11 15,42 4,66 -51,113 -82,321 -36,401 8,13 21,29 58,32 26,2 44,25 43,51 -2,45 -50,43 -51,43z"/>
  <path class="fil6" d="M7159 11690c-240,0 -403,-115 -414,-123 -21,-15 -25,-44 -10,-65 15,-21 44,-25 65,-10 14,10 333,232 731,-2 22,-13 50,-6 63,16 13,22 6,50 -16,63 -153,90 -296,120 -419,120z"/>
  <path class="fil12" d="M5662 10014l85 219 116 54c0,0 34,-390 64,-659 50,-459 73,-827 1213,-838 1185,-11 1183,369 1289,816 77,322 85,668 85,668l106 -102 116 -157c0,0 -5,-383 0,-743 0,0 73,-821 -330,-909 0,0 -408,-723 -1157,-724 -1106,-1 -1078,334 -1104,392 0,0 -372,75 -483,234 -111,159 -11,345 -138,716 0,0 37,153 74,222 37,69 5,523 64,810z"/>
  <path class="fil25" d="M5620 8979c-6,0 -12,-4 -15,-10 -3,-8 1,-17 9,-21 338,-135 555,-104 654,-74l4 1c8,2 13,11 11,20 -2,8 -11,13 -20,11l-4 -1c-95,-29 -305,-58 -633,73 -2,1 -4,1 -6,1z"/>
  <path class="fil25" d="M6726 8764c-6,0 -12,-4 -15,-10 -2,-6 -251,-614 -914,-491 -9,2 -17,-4 -19,-13 -2,-9 4,-17 13,-19 689,-128 947,504 949,511 3,8 -1,17 -9,21 -2,1 -4,1 -6,1z"/>
  <path class="fil25" d="M6892 8694c0,0 0,0 -1,0 -9,0 -16,3 -15,-6 0,-3 9,-265 -165,-450 -107,-114 -261,-172 -458,-177 -9,0 -16,-6 -16,-15 0,-9 8,-15 16,-15 206,5 368,69 481,190 183,195 174,456 173,468 0,9 -7,4 -16,4z"/>
  <path class="fil25" d="M8276 9034c-6,0 -12,-4 -14,-9 -4,-8 0,-17 8,-21 10,-4 242,-113 166,-512 -2,-9 4,-17 13,-19 9,-2 17,4 19,13 81,424 -181,546 -184,547 -2,1 -4,1 -6,1z"/>
  <path class="fil25" d="M7600 8764c-9,0 -16,-7 -16,-16 0,-8 -17,-816 -727,-963 -9,-2 -14,-10 -12,-19 2,-9 10,-14 19,-12 736,152 753,985 753,993 0,9 -7,-26 -16,16 0,0 0,0 0,0z"/>
  <path class="fil25" d="M7695 8716c-2,0 -4,0 -7,-1 -8,-4 -12,-13 -8,-21 2,-5 209,-474 1,-828 -4,-8 -2,-17 6,-22 8,-4 17,-2 22,6 216,369 3,853 1,857 -3,6 -9,9 -15,9z"/>
  <path class="fil7" d="M6056 10861c0,0 -255,-714 -394,-847l-25 1c0,0 295,629 364,894l55 -48z"/>
  <path class="fil7" d="M6072 11539c0,0 -184,-416 -231,-576 0,0 17,339 243,661l-12 -86z"/>
  <path class="fil7" d="M8326 10885c0,0 265,-738 404,-871l25 1c0,0 -316,684 -384,949l-45 -78z"/>
  <path class="fil7" d="M8278 11546c0,0 208,-437 255,-597 0,0 -46,361 -255,683l0 -86z"/>
  <path class="fil8" d="M5949 10963c0,0 -17,-94 98,-142 115,-48 862,-298 1053,-298 191,0 1023,264 1206,330 67,24 75,80 74,193 0,44 -20,1382 -1280,1334 -1260,-48 -1152,-1417 -1152,-1417z"/>
  <path class="fil7" d="M6676 10819c-19,0 -37,-12 -44,-31 -10,-25 3,-52 27,-62 61,-24 373,-141 478,-133 104,8 398,120 431,133 25,9 37,37 27,62 -9,25 -37,37 -62,27 -87,-33 -328,-121 -404,-127 -65,-5 -302,75 -436,127 -6,2 -11,3 -17,3z"/>
  <path class="fil7" d="M7113 10738c0,0 24,1101 18,1165 -6,64 213,-430 -18,-1165z"/>
  <path class="fil14" d="M6958 11690c0,18 -14,32 -32,32l-409 0c-18,0 -32,-14 -32,-32l0 -450c0,-18 14,-32 32,-32l409 0c18,0 32,14 32,32l0 450z"/>
  <path class="fil15" d="M6611 11595c0,13 -9,16 -23,16l-16 0c-13,0 -31,-3 -31,-16l0 -143c0,-13 18,-22 31,-22l16 0c13,0 23,9 23,22l0 143z"/>
  <path class="fil15" d="M6708 11595c0,13 -11,16 -25,16l-16 0c-13,0 -29,-3 -29,-16l0 -143c0,-13 16,-22 29,-22l16 0c13,0 25,9 25,22l0 143z"/>
  <path class="fil15" d="M6806 11587c0,13 -11,24 -24,24l-8 0c-13,0 -24,-11 -24,-24l0 -133c0,-13 11,-24 24,-24l8 0c13,0 24,11 24,24l0 133z"/>
  <path class="fil15" d="M6889 11587c0,13 -11,24 -24,24l-8 0c-13,0 -24,-11 -24,-24l0 -133c0,-13 11,-24 24,-24l8 0c13,0 24,11 24,24l0 133z"/>
  <path class="fil22" d="M5952 13265c0,0 236,508 1164,508 928,0 1107,-510 1107,-510 0,0 2271,846 2398,949 127,103 702,1051 1189,3982l-9245 0c0,0 498,-3134 922,-3685 424,-551 2465,-1244 2465,-1244z"/>
  <path class="fil26" d="M4179 18194c0,0 -119,-2274 -223,-2727l48 2727 175 0z"/>
  <path class="fil26" d="M10063 18194c0,0 119,-2274 223,-2727l-48 2727 -175 0z"/>
  <path class="fil27" d="M59638 11458c0,0 55,1299 0,1510 -55,211 -570,557 -1097,804 0,0 679,928 2004,900 1326,-27 1662,-576 1873,-878 0,0 -1011,-359 -1036,-789 -24,-430 0,-1547 0,-1547l-1745 0z"/>
  <path class="fil28" d="M60498 12693c420,0 711,-286 875,-511 3,-382 10,-724 10,-724l-1745 0c0,0 15,342 21,706 141,228 409,529 839,529z"/>
  <path class="fil27" d="M59346 10203c0,0 -72,-212 -356,-187 -275,24 -181,730 60,846 242,116 321,-234 321,-234l-25 -424z"/>
  <path class="fil27" d="M61751 10203c0,0 72,-212 356,-187 275,24 181,730 -60,846 -242,116 -321,-234 -321,-234l25 -424z"/>
  <path class="fil27" d="M61985 10148c-121,1509 -544,2234 -1437,2234 -893,0 -1321,-598 -1437,-2234 -85,-1208 548,-1954 1437,-1954 889,0 1537,701 1437,1954z"/>
  <path class="fil5" d="M59804 10391c0,57 -40,103 -89,103 -50,0 -90,-46 -90,-103 0,-57 40,-103 90,-103 50,0 89,46 89,103z"/>
  <path class="fil5" d="M61439 10391c0,57 -40,103 -89,103 -50,0 -90,-46 -90,-103 0,-57 40,-103 90,-103 50,0 89,46 89,103z"/>
  <path class="fil18" d="M59406 10062c-13,0 -26,-5 -36,-14 -22,-20 -24,-54 -4,-76 83,-93 290,-289 588,-92 25,16 37,46 23,72 -13,26 -45,37 -72,23 -270,-137 -458,66 -460,68 -11,12 -25,18 -40,18z"/>
  <path class="fil18" d="M61724 10062c13,0 26,-5 36,-14 22,-20 24,-54 4,-76 -83,-93 -290,-289 -588,-92 -25,16 -37,46 -23,72 13,26 46,37 72,23 270,-137 458,66 460,68 11,12 25,18 40,18z"/>
  <path class="fil28" d="M60527 11262c-75,-2 -135,-23 -164,-79 -87,-173 79,-453 94,-488 11,-24 27,-38 51,-27 24,11 15,42 4,66 -51,113 -82,321 -36,401 8,13 22,29 58,32 26,2 44,25 43,51 -2,45 -50,43 -51,43z"/>
  <path class="fil18" d="M59062 10015l42 93 129 40c0,0 27,-676 95,-895 67,-219 806,-266 1182,-266 376,0 1191,95 1239,274 48,179 131,887 131,887l120 -56 36 -77 30 -800c0,0 77,-1068 -65,-966 -142,102 -104,-380 -300,-184 -197,196 -165,-466 -350,-186 -186,281 -224,-456 -456,-164 -232,292 -429,-493 -832,5 -317,392 -350,-117 -520,281 -170,398 -397,-28 -500,334 -104,362 -30,865 -30,865l50 816z"/>
  <path class="fil14" d="M60140 11503c0,0 326,64 751,0 0,0 -369,302 -751,0z"/>
  <path class="fil7" d="M59427 10854c0,0 -226,-687 -365,-854l-40 0c0,0 281,633 349,898l55 -44z"/>
  <path class="fil7" d="M59442 11539c0,0 -184,-416 -231,-576 0,0 17,339 243,661l-12 -86z"/>
  <path class="fil7" d="M61697 10878c0,0 200,-711 339,-878l29 0c0,0 -254,687 -323,952l-45 -74z"/>
  <path class="fil7" d="M61639 11546c0,0 208,-437 255,-597 0,0 -32,361 -255,683l0 -86z"/>
  <path class="fil8" d="M59321 10963c0,0 -17,-94 98,-142 115,-48 862,-298 1053,-298 191,0 1023,264 1206,330 66,24 75,80 74,193 -1,44 -20,1382 -1281,1334 -1260,-48 -1151,-1417 -1151,-1417z"/>
  <path class="fil7" d="M60047 10819c-19,0 -37,-12 -45,-31 -10,-25 3,-52 27,-62 61,-24 373,-141 478,-133 104,8 398,120 431,133 24,9 37,37 27,62 -10,25 -37,37 -62,27 -87,-33 -328,-121 -404,-127 -65,-5 -302,75 -436,127 -6,2 -12,3 -17,3z"/>
  <path class="fil7" d="M60484 10738c0,0 24,1101 18,1165 -6,64 213,-430 -18,-1165z"/>
  <path class="fil14" d="M60319 11690c0,18 -15,32 -32,32l-409 0c-17,0 -32,-14 -32,-32l0 -450c0,-18 15,-32 32,-32l409 0c17,0 32,14 32,32l0 450z"/>
  <path class="fil15" d="M59986 11587c0,13 -11,24 -24,24l-8 0c-13,0 -24,-11 -24,-24l0 -133c0,-13 11,-24 24,-24l8 0c13,0 24,11 24,24l0 133z"/>
  <path class="fil15" d="M60070 11587c0,13 -11,24 -24,24l-8 0c-13,0 -24,-11 -24,-24l0 -133c0,-13 10,-24 24,-24l8 0c13,0 24,11 24,24l0 133z"/>
  <path class="fil15" d="M60167 11587c0,13 -11,24 -24,24l-8 0c-13,0 -24,-11 -24,-24l0 -133c0,-13 11,-24 24,-24l8 0c13,0 24,11 24,24l0 133z"/>
  <path class="fil15" d="M60264 11587c0,13 -11,24 -24,24l-8 0c-13,0 -24,-11 -24,-24l0 -133c0,-13 10,-24 24,-24l8 0c13,0 24,11 24,24l0 133z"/>
  <path class="fil29" d="M59291 13265c0,0 236,508 1164,508 928,0 1107,-510 1107,-510 0,0 2271,846 2398,949 127,103 797,1051 1285,3982l-9436 0c0,0 594,-3134 1018,-3685 424,-551 2465,-1244 2465,-1244z"/>
  <path class="fil30" d="M57518 18194c0,0 -119,-2274 -222,-2727l47 2727 175 0z"/>
  <path class="fil30" d="M63402 18194c0,0 119,-2274 222,-2727l-47 2727 -175 0z"/>
  <path class="fil18" d="M41051 13157c0,0 -178,256 -665,0 0,0 -613,196 -846,-226 0,0 -345,-35 -275,-278 0,0 -352,-358 35,-929 193,-285 465,-631 429,-1009 -42,-437 -175,-722 188,-1087 386,-387 53,-647 476,-932 346,-233 -97,-554 639,-570 314,-7 340,-500 808,2 0,0 455,-344 630,-106 207,282 561,58 633,596 72,533 482,141 453,994 -19,565 400,343 329,1041 -56,546 102,886 235,1139 94,179 409,535 78,807 0,0 106,196 -85,241 0,0 -113,475 -662,332 0,0 -346,422 -920,188 0,0 -440,249 -743,-15 0,0 -439,271 -737,-189z"/>
  <path class="fil27" d="M41028 11639c0,0 44,1042 0,1208 -43,167 -451,447 -869,643 0,0 538,738 1588,716 1050,-22 1244,-455 1411,-694 0,0 -728,-296 -747,-636 -19,-341 0,-1237 0,-1237l-1382 0z"/>
  <path class="fil28" d="M41709 12642c332,0 563,-238 693,-417 2,-302 8,-585 8,-585l-1382 0c0,0 12,283 17,572 111,181 324,431 665,431z"/>
  <path class="fil27" d="M40647 10415c0,0 -67,-197 -331,-174 -255,22 -169,678 56,786 225,108 299,-218 299,-218l-24 -394z"/>
  <path class="fil27" d="M42882 10415c0,0 67,-197 331,-174 255,22 169,678 -56,786 -225,108 -299,-218 -299,-218l24 -394z"/>
  <path class="fil27" d="M43100 10225c-112,1403 -649,2076 -1335,2076 -683,0 -1228,-556 -1335,-2076 -79,-1122 509,-1816 1335,-1816 826,0 1429,651 1335,1816z"/>
  <path class="fil5" d="M41119 10543c0,53 -37,96 -83,96 -46,0 -83,-43 -83,-96 0,-53 37,-96 83,-96 46,0 83,43 83,96z"/>
  <path class="fil5" d="M42546 10543c0,53 -37,96 -83,96 -46,0 -83,-43 -83,-96 0,-53 37,-96 83,-96 46,0 83,43 83,96z"/>
  <path class="fil18" d="M40729 10189c-12,-2 -22,-9 -30,-19 -17,-22 -12,-53 10,-70 93,-70 316,-212 553,21 20,19 26,48 9,70 -17,22 -48,25 -70,8 -222,-173 -429,-21 -432,-19 -12,9 -26,12 -39,9z"/>
  <path class="fil18" d="M42810 10179c12,-3 22,-9 30,-20 16,-23 10,-54 -12,-69 -95,-67 -323,-200 -552,41 -19,20 -24,49 -6,70 18,21 49,24 70,6 215,-181 428,-37 431,-35 12,8 27,11 40,8z"/>
  <path class="fil28" d="M41744 11260c-70,-2 -126,-21 -152,-73 -81,-161 73,-421 87,-453 10,-22 25,-35 47,-25 22,10 14,39 4,61 -47,105 -77,299 -33,373 7,12 20,27 54,30 24,2 41,23 40,48 -2,42 -46,40 -48,40z"/>
  <path class="fil18" d="M40415 10319c0,0 263,-108 406,-481 262,-684 748,-221 945,-922 0,0 167,520 492,520 326,0 368,169 448,394 80,225 278,422 386,489l66 -100c0,0 409,-1915 -1392,-1915 -1644,0 -1431,1824 -1418,1937l68 78z"/>
  <path class="fil14" d="M41443 11472c0,0 266,64 614,0 0,0 -302,302 -614,0z"/>
  <path class="fil7" d="M40739 10972c0,0 -268,-597 -393,-750l-36 0c0,0 317,545 379,785l50 -35z"/>
  <path class="fil7" d="M40753 11601c0,0 -155,-383 -197,-527 0,0 3,313 208,604l-11 -77z"/>
  <path class="fil7" d="M42791 10994c0,0 244,-619 370,-772l26 0c0,0 -293,594 -355,834l-41 -62z"/>
  <path class="fil7" d="M42736 11608c0,0 182,-395 224,-540 0,0 -16,327 -224,618l0 -78z"/>
  <path class="fil8" d="M40643 11080c0,0 -15,-85 89,-128 104,-43 780,-270 952,-270 173,0 925,239 1090,299 60,22 68,73 67,175 0,40 -18,1249 -1158,1206 -1139,-44 -1041,-1282 -1041,-1282z"/>
  <path class="fil7" d="M41300 10950c-17,0 -34,-10 -40,-28 -8,-22 2,-47 25,-56 56,-21 337,-128 432,-120 94,7 360,109 390,120 22,9 33,33 25,56 -8,22 -33,33 -56,25 -78,-30 -297,-109 -366,-115 -59,-5 -273,68 -394,115 -5,2 -10,3 -16,3z"/>
  <path class="fil7" d="M41695 10877c0,0 22,996 16,1053 -6,58 192,-389 -16,-1053z"/>
  <path class="fil14" d="M41542 11716c0,16 -14,34 -29,34l-356 0c-16,0 -31,-18 -31,-34l0 -385c0,-16 15,-26 31,-26l356 0c16,0 29,10 29,26l0 385z"/>
  <path class="fil15" d="M41236 11645c0,12 -10,22 -22,22l-12 0c-12,0 -22,-10 -22,-22l0 -137c0,-12 10,-22 22,-22l12 0c12,0 22,10 22,22l0 137z"/>
  <path class="fil15" d="M41333 11645c0,12 -10,22 -22,22l-12 0c-12,0 -22,-10 -22,-22l0 -137c0,-12 10,-22 22,-22l12 0c12,0 22,10 22,22l0 137z"/>
  <path class="fil15" d="M41431 11645c0,12 -10,22 -22,22l-12 0c-12,0 -22,-10 -22,-22l0 -137c0,-12 10,-22 22,-22l12 0c12,0 22,10 22,22l0 137z"/>
  <path class="fil15" d="M41528 11645c0,12 -10,22 -22,22l-12 0c-12,0 -22,-10 -22,-22l0 -137c0,-12 10,-22 22,-22l12 0c12,0 22,10 22,22l0 137z"/>
  <path class="fil22" d="M39919 13576l656 -338c0,0 222,513 1168,545 946,32 1297,-370 1297,-370l364 175c0,0 -437,829 -1772,815 -1335,-13 -1713,-827 -1713,-827z"/>
  <path class="fil29" d="M40021 13498c0,0 402,759 1726,711 1095,-39 1492,-742 1492,-742 0,0 1441,657 1573,753 628,458 238,342 683,1124 390,686 79,944 342,1585 161,391 44,960 96,1265l-8572 0c0,0 -138,-703 186,-1224 188,-302 4,-726 227,-1140 281,-523 127,-772 604,-1316 459,-523 1642,-1017 1642,-1017z"/>
  <path class="fil30" d="M39071 18194c0,0 -119,-2274 -223,-2727l48 2727 175 0z"/>
  <path class="fil30" d="M44255 18194c0,0 119,-2274 223,-2727l-48 2727 -175 0z"/>
  <path class="fil2" d="M28504 9813c0,0 225,1415 -111,1677 -236,185 -101,612 130,698 0,0 237,-137 362,-40 185,143 438,61 604,-7 166,-68 852,-57 1027,47 175,104 720,29 957,-133l0 -2241 -2969 -3z"/>
  <path class="fil1" d="M30873 11639c0,0 -31,1023 0,1192 58,317 1442,910 1860,1106 0,0 -1547,888 -2598,866 -1050,-22 -2261,-576 -2427,-815 0,0 1764,-786 1783,-1127 19,-341 0,-1222 0,-1222l1382 0z"/>
  <path class="fil3" d="M30192 12609c-332,0 -563,-222 -693,-401 -2,-302 -8,-569 -8,-569l1382 0c0,0 -12,267 -17,555 -111,181 -324,415 -665,415z"/>
  <path class="fil1" d="M31254 10383c0,0 67,-197 331,-174 255,22 169,678 -56,786 -225,108 -299,-218 -299,-218l24 -394z"/>
  <path class="fil1" d="M29019 10383c0,0 -67,-197 -331,-174 -255,22 -169,678 56,786 225,108 299,-218 299,-218l-24 -394z"/>
  <path class="fil1" d="M28801 10192c113,1402 650,2076 1335,2076 683,0 1228,-556 1335,-2076 79,-1122 -509,-1816 -1335,-1816 -826,0 -1429,651 -1335,1816z"/>
  <path class="fil5" d="M30782 10511c0,53 37,96 83,96 46,0 83,-43 83,-96 0,-53 -37,-96 -83,-96 -46,0 -83,43 -83,96z"/>
  <path class="fil5" d="M29355 10511c0,53 37,96 83,96 46,0 83,-43 83,-96 0,-53 -37,-96 -83,-96 -46,0 -83,43 -83,96z"/>
  <path class="fil2" d="M31157 10198c12,0 24,-5 33,-13 20,-19 21,-50 2,-70 -79,-85 -275,-263 -548,-74 -23,16 -33,43 -20,67 13,24 43,33 68,20 248,-133 427,53 428,55 10,11 24,16 37,16z"/>
  <path class="fil2" d="M29107 10198c-12,0 -24,-5 -33,-14 -20,-19 -21,-50 -2,-70 80,-85 275,-262 548,-73 23,16 33,43 20,67 -13,24 -43,33 -67,20 -248,-133 -427,52 -429,54 -10,11 -24,16 -37,16z"/>
  <path class="fil3" d="M30157 11228c70,-2 126,-21 152,-73 81,-161 -73,-421 -87,-453 -10,-22 -25,-35 -47,-25 -22,10 -14,39 -4,61 47,105 77,299 33,373 -7,12 -20,27 -54,30 -24,2 -41,23 -40,48 2,42 46,40 48,40z"/>
  <path class="fil4" d="M32276 11797c0,0 -126,471 -459,270 -70,-42 -163,40 -289,69 -144,34 -474,-103 -323,-1386 110,-936 -554,-1045 -601,-1392 0,0 -20,214 207,474 0,0 -250,46 -386,-23 -139,-71 -242,-310 -295,-510 0,0 24,321 222,533 0,0 -246,87 -355,-156 0,0 29,133 47,167 0,0 -522,89 -624,-868 0,0 -283,954 -540,1197 0,0 -27,443 -136,34 0,0 -69,-29 -153,55 0,0 -233,-747 -92,-1307 94,-373 405,-650 872,-618 0,0 242,-709 1158,-508 341,75 664,181 964,460 233,217 586,498 552,1319 -61,1484 -185,1462 231,2190z"/>
  <path class="fil6" d="M30168 11623c-240,0 -403,-115 -413,-123 -21,-15 -25,-44 -10,-64 15,-21 44,-25 65,-10 14,10 333,232 731,-2 22,-13 50,-6 63,16 13,22 6,50 -16,63 -153,90 -296,120 -419,120z"/>
  <path class="fil7" d="M29130 10942c0,0 -267,-595 -393,-748l-36 0c0,0 317,544 379,784l50 -36z"/>
  <path class="fil7" d="M29144 11569c0,0 -155,-383 -197,-527 0,0 3,313 208,604l-11 -77z"/>
  <path class="fil8" d="M29033 11049c0,0 -15,-85 89,-128 104,-43 780,-270 952,-270 173,0 925,239 1091,299 60,22 68,73 67,175 0,40 -18,1249 -1158,1206 -1139,-44 -1041,-1281 -1041,-1281z"/>
  <path class="fil7" d="M29690 10918c-17,0 -34,-10 -40,-28 -9,-22 2,-47 25,-56 55,-21 337,-128 432,-120 94,7 360,109 390,120 22,9 33,33 25,56 -9,22 -33,33 -56,25 -78,-30 -297,-109 -366,-115 -58,-5 -273,68 -394,115 -5,2 -10,3 -15,3z"/>
  <path class="fil7" d="M30086 10845c0,0 22,996 16,1053 -6,58 192,-388 -16,-1053z"/>
  <polygon class="fil22" points="28612,13522 28328,15236 28169,15236 28459,13600 "/>
  <polygon class="fil22" points="31922,13522 32207,15236 32366,15236 32075,13600 "/>
  <path class="fil22" d="M27764 13938c0,0 1240,318 2564,271 1095,-39 2392,-302 2392,-302 0,0 445,153 615,297 446,377 296,358 741,1140 390,686 79,944 343,1585 160,391 44,960 95,1265l-8572 0c0,0 -138,-703 186,-1224 188,-302 4,-726 227,-1140 281,-523 190,-869 684,-1397 350,-374 724,-496 724,-496z"/>
  <path class="fil31" d="M27652 18194c0,0 -119,-2274 -223,-2727l48 2727 175 0z"/>
  <path class="fil31" d="M32837 18194c0,0 119,-2274 223,-2727l-48 2727 -175 0z"/>
  <path class="fil2" d="M53400 7673c-177,167 -20,443 83,585 -32,-138 -30,-293 -7,-454 15,-108 53,-200 110,-284 -31,-137 -30,-413 442,-521 0,0 -419,178 -427,499 116,-159 303,-290 538,-445 369,-243 528,162 767,243 240,81 364,300 428,681 20,120 3,214 -32,288 229,-248 27,-638 27,-638 296,425 60,615 -46,674 -81,136 -216,197 -240,231 -181,266 -1118,266 -1347,81 -106,-85 -170,-196 -205,-321 -448,-432 -92,-618 -92,-618z"/>
  <path class="fil1" d="M53687 11639c0,0 44,1042 0,1208 -44,167 -451,447 -869,643 0,0 537,738 1588,716 1050,-22 1244,-455 1411,-694 0,0 -728,-296 -747,-636 -19,-341 0,-1237 0,-1237l-1382 0z"/>
  <path class="fil3" d="M54368 12642c332,0 563,-238 693,-417 2,-302 8,-585 8,-585l-1382 0c0,0 12,283 17,572 111,181 324,431 665,431z"/>
  <path class="fil1" d="M53306 10415c0,0 -67,-197 -331,-174 -255,22 -169,678 56,786 225,108 299,-218 299,-218l-24 -394z"/>
  <path class="fil1" d="M55541 10415c0,0 67,-197 331,-174 255,22 169,678 -56,786 -225,108 -299,-218 -299,-218l24 -394z"/>
  <path class="fil1" d="M55759 10225c-113,1403 -649,2076 -1336,2076 -683,0 -1228,-556 -1335,-2076 -79,-1122 509,-1816 1335,-1816 827,0 1429,651 1336,1816z"/>
  <path class="fil5" d="M53778 10543c0,53 -37,96 -83,96 -46,0 -83,-43 -83,-96 0,-53 37,-96 83,-96 46,0 83,43 83,96z"/>
  <path class="fil5" d="M55205 10543c0,53 -38,96 -83,96 -46,0 -83,-43 -83,-96 0,-53 37,-96 83,-96 46,0 83,43 83,96z"/>
  <path class="fil2" d="M53388 10189c-12,-2 -23,-9 -30,-19 -17,-22 -12,-53 10,-70 93,-70 316,-212 553,21 19,19 25,48 9,70 -17,22 -48,25 -70,8 -222,-173 -430,-21 -432,-19 -12,9 -26,12 -39,9z"/>
  <path class="fil2" d="M55469 10179c12,-3 22,-9 30,-20 16,-23 10,-54 -12,-69 -95,-67 -324,-200 -552,41 -19,20 -24,49 -6,70 18,21 49,24 71,6 215,-181 428,-37 430,-35 12,8 26,11 40,8z"/>
  <path class="fil3" d="M54403 11260c-70,-2 -126,-21 -152,-73 -81,-161 73,-421 87,-453 10,-22 25,-35 47,-25 23,10 14,39 4,61 -47,105 -76,299 -33,373 8,12 20,27 54,30 24,2 41,23 40,48 -2,42 -46,40 -47,40z"/>
  <path class="fil4" d="M55657 10239c0,0 -44,-235 -90,-397 -46,-162 -164,-1016 -1190,-936 -1026,81 -1091,751 -1103,982 -12,231 -87,381 -87,381 0,0 -29,378 -168,-30 0,0 -29,-85 0,-322 29,-237 -83,-381 -13,-595 71,-214 30,-560 299,-757 269,-196 420,-497 922,-427 502,69 673,-133 1001,139 327,272 510,410 563,785 53,375 152,439 65,693 -88,254 -11,389 -40,483 0,0 -117,466 -159,0z"/>
  <path class="fil6" d="M54437 11632c-186,0 -313,-89 -320,-95 -16,-12 -20,-34 -8,-50 12,-16 34,-20 50,-8 11,8 258,180 567,-2 17,-10 39,-4 49,13 10,17 4,39 -13,49 -118,70 -229,93 -325,93z"/>
  <path class="fil7" d="M53398 10940c0,0 -268,-565 -393,-718l-36 0c0,0 317,513 379,753l50 -35z"/>
  <path class="fil7" d="M53412 11569c0,0 -155,-383 -197,-527 0,0 3,313 208,604l-11 -77z"/>
  <path class="fil7" d="M55450 10962c0,0 244,-587 370,-740l26 0c0,0 -293,563 -355,802l-41 -62z"/>
  <path class="fil7" d="M55403 11576c0,0 182,-395 224,-540 0,0 -30,327 -224,618l0 -78z"/>
  <path class="fil9" d="M53302 11049c0,0 -15,-85 89,-128 104,-43 780,-270 952,-270 173,0 925,239 1090,299 60,22 68,73 67,175 0,40 -18,1249 -1157,1206 -1139,-44 -1042,-1281 -1042,-1281z"/>
  <path class="fil7" d="M53959 10918c-17,0 -34,-10 -40,-28 -9,-22 3,-47 25,-56 55,-21 337,-128 432,-120 94,7 360,109 390,120 22,9 33,33 25,56 -9,22 -33,33 -55,25 -79,-30 -297,-109 -366,-115 -59,-5 -273,68 -394,115 -5,2 -11,3 -16,3z"/>
  <path class="fil32" d="M54354 10845c0,0 22,996 17,1053 -6,58 192,-388 -17,-1053z"/>
  <path class="fil14" d="M54236 11693c0,16 -13,29 -29,29l-359 0c-16,0 -29,-13 -29,-29l0 -387c0,-16 13,-29 29,-29l359 0c16,0 29,13 29,29l0 387z"/>
  <path class="fil15" d="M53903 11617c0,12 -10,22 -22,22l-12 0c-12,0 -22,-10 -22,-22l0 -137c0,-12 10,-22 22,-22l12 0c12,0 22,10 22,22l0 137z"/>
  <path class="fil15" d="M54000 11617c0,12 -10,22 -22,22l-12 0c-12,0 -22,-10 -22,-22l0 -137c0,-12 10,-22 22,-22l12 0c12,0 22,10 22,22l0 137z"/>
  <path class="fil15" d="M54083 11617c0,12 -10,22 -22,22l-12 0c-12,0 -22,-10 -22,-22l0 -137c0,-12 10,-22 22,-22l12 0c12,0 22,10 22,22l0 137z"/>
  <path class="fil15" d="M54180 11617c0,12 -10,22 -22,22l-12 0c-12,0 -22,-10 -22,-22l0 -137c0,-12 10,-22 22,-22l12 0c12,0 22,10 22,22l0 137z"/>
  <path class="fil23" d="M53651 12770l373 700 19 326 306 320 304 -296 31 -347 438 -704 427 513 -6 62c492,259 1558,802 1642,875 318,275 198,459 440,958 104,215 116,293 230,657 76,241 10,635 85,956 77,332 162,986 233,1403l-7708 0c0,0 -2,-722 148,-1307 60,-232 -22,-663 50,-911 81,-280 209,-392 295,-632 107,-297 272,-807 370,-935 268,-348 1358,-873 1835,-1126l20 -79 468 -434z"/>
  <path class="fil33" d="M51920 18194c0,0 -207,-2950 -310,-3403l207 3403 104 0z"/>
  <path class="fil33" d="M56627 18194c0,0 239,-2950 342,-3403l-236 3403 -106 0z"/>
  <path class="fil33" d="M53996 13549l-546 832 -267 -1081c0,0 133,804 228,1302l521 -852 80 69 -16 -270z"/>
  <path class="fil33" d="M54726 13549l546 832 267 -1081c0,0 -132,804 -228,1302l-521 -852 -80 69 16 -270z"/>
  <path class="fil33" d="M54348 18193c1,0 3,0 4,0 17,-2 30,-18 27,-36 -1,-3 -36,-721 42,-1385 61,-522 -5,-1008 -58,-1398 -16,-117 -31,-228 -40,-324 -39,-404 41,-863 41,-867 3,-17 -9,-34 -26,-37 -17,-3 -34,8 -37,26 -1,5 -82,472 -43,884 10,98 25,209 40,327 52,387 117,868 58,1382 -79,674 -44,1389 -43,1401 3,16 17,28 32,27z"/>
  <polygon class="fil34" points="11444,14514 14278,14514 14278,10347 11444,10347 "/>
  <path class="fil1" d="M12179 11639c0,0 44,1042 0,1208 -44,167 -1587,1042 -2005,1238 0,0 684,821 2546,853 1050,18 2896,-483 3063,-722 0,0 -2200,-818 -2200,-1331 0,-341 0,-1246 0,-1246l-1404 0z"/>
  <path class="fil3" d="M12861 12642c332,0 563,-238 693,-417 2,-302 8,-585 8,-585l-1382 0c0,0 12,283 17,572 111,181 324,431 665,431z"/>
  <path class="fil16" d="M10230 14042c0,0 666,652 2301,374 1214,-207 1385,-1152 1385,-1152 0,0 1889,846 2016,949 127,103 702,1051 1189,3982l-8450 0c0,0 635,-3052 922,-3685 183,-403 636,-467 636,-467z"/>
  <path class="fil17" d="M10286 18194c0,0 -119,-2274 -223,-2727l48 2727 175 0z"/>
  <path class="fil17" d="M15375 18194c0,0 119,-2274 223,-2727l-48 2727 -175 0z"/>
  <path class="fil1" d="M11799 10415c0,0 -67,-197 -331,-174 -255,22 -169,678 56,786 225,108 299,-218 299,-218l-24 -394z"/>
  <path class="fil1" d="M14034 10415c0,0 67,-197 331,-174 255,22 169,678 -56,786 -225,108 -299,-218 -299,-218l24 -394z"/>
  <path class="fil1" d="M14252 10225c-113,1403 -650,2076 -1335,2076 -683,0 -1228,-556 -1335,-2076 -79,-1122 509,-1816 1335,-1816 826,0 1429,651 1335,1816z"/>
  <path class="fil5" d="M12270 10543c0,53 -37,96 -83,96 -46,0 -83,-43 -83,-96 0,-53 37,-96 83,-96 46,0 83,43 83,96z"/>
  <path class="fil5" d="M13698 10543c0,53 -37,96 -83,96 -46,0 -83,-43 -83,-96 0,-53 37,-96 83,-96 46,0 83,43 83,96z"/>
  <path class="fil12" d="M11881 10189c-12,-2 -23,-9 -30,-19 -17,-22 -12,-53 10,-70 93,-70 316,-212 553,21 20,19 25,48 9,70 -17,22 -48,25 -70,8 -222,-173 -429,-21 -432,-19 -12,9 -26,12 -40,9z"/>
  <path class="fil12" d="M13961 10179c12,-3 22,-9 30,-20 16,-23 10,-54 -12,-69 -95,-67 -323,-200 -552,41 -19,20 -24,49 -6,70 18,21 49,24 70,6 215,-181 428,-37 431,-35 12,8 27,11 40,8z"/>
  <path class="fil3" d="M12896 11260c-70,-2 -126,-21 -152,-73 -81,-161 73,-421 87,-453 10,-22 25,-35 47,-25 22,10 14,39 4,61 -47,105 -77,299 -33,373 7,12 20,27 54,30 24,2 41,23 40,48 -2,42 -46,40 -48,40z"/>
  <path class="fil6" d="M12867 11632c-186,0 -313,-89 -321,-95 -16,-12 -20,-34 -8,-50 12,-16 34,-20 50,-8 11,8 258,180 567,-2 17,-10 39,-4 49,13 10,17 4,39 -13,49 -119,70 -229,93 -325,93z"/>
  <path class="fil12" d="M13410 9042c0,0 -14,528 -205,805 0,0 -318,38 -445,62 0,0 88,-469 72,-795 0,0 -89,595 -285,840 0,0 -578,38 -784,400 0,0 92,1155 77,1733 -19,700 592,1240 95,2401 -496,1161 411,1161 -19,1829 0,0 -393,-42 -607,0 0,0 146,-307 0,-694 0,0 40,546 -167,694 0,0 -228,-16 -435,0 0,0 223,-334 127,-620 -95,-286 -429,-725 -64,-1492 366,-767 -347,-724 270,-2766 617,-2043 46,-2166 822,-3032 475,-530 1361,-317 1627,-104 0,0 1098,-33 1082,1383 -16,1415 64,1286 159,1677 95,391 445,938 175,1563 -270,625 535,768 101,1770 -434,1002 440,907 -53,1622 0,0 -217,-32 -477,0 0,0 164,-403 37,-732 0,0 21,387 -175,732 0,0 -329,-32 -514,0 0,0 212,-313 159,-588 -53,-276 -373,-705 -133,-1373 239,-668 -377,-827 -64,-1802 314,-975 250,-2286 261,-2479 11,-193 -121,-739 -639,-1033z"/>
  <path class="fil8" d="M11802 11049c0,0 -15,-86 90,-130 106,-44 791,-274 966,-274 175,0 938,242 1107,303 61,22 69,74 68,177 0,41 -19,1268 -1175,1224 -1156,-44 -1057,-1300 -1057,-1300z"/>
  <path class="fil21" d="M12468 10916c-18,0 -34,-11 -41,-28 -9,-23 3,-48 25,-57 56,-22 342,-130 438,-122 95,8 365,110 395,122 23,9 34,34 25,56 -9,23 -34,34 -57,25 -80,-30 -301,-111 -371,-116 -59,-5 -277,69 -400,116 -5,2 -11,3 -16,3z"/>
  <path class="fil21" d="M12869 10842c0,0 22,1011 17,1069 -6,58 195,-394 -17,-1069z"/>
  <path class="fil21" d="M12699 11497c0,-126 -102,-228 -228,-228 -126,0 -228,102 -228,228 0,126 102,228 228,228 126,0 228,-102 228,-228z"/>
  <path class="fil14" d="M12672 11497c0,-111 -90,-201 -201,-201 -111,0 -201,90 -201,201 0,111 90,201 201,201 111,0 201,-90 201,-201z"/>
  <path class="fil15" d="M12314 11583l306 0c0,0 -34,95 -153,94 -119,-1 -153,-94 -153,-94z"/>
  <path class="fil1" d="M34829 11431c0,0 55,1297 0,1508 -55,211 -570,556 -1097,803 0,0 678,928 2004,900 1326,-27 1663,-576 1873,-878 0,0 -1011,-357 -1036,-787 -24,-430 0,-1545 0,-1545l-1745 0z"/>
  <path class="fil3" d="M35690 12661c419,0 711,-283 875,-509 2,-382 10,-722 10,-722l-1745 0c0,0 15,340 21,704 140,228 409,527 839,527z"/>
  <path class="fil1" d="M34537 10171c0,0 -72,-212 -356,-187 -275,24 -182,730 60,846 242,116 322,-234 322,-234l-26 -424z"/>
  <path class="fil1" d="M36942 10171c0,0 72,-212 356,-187 275,24 181,730 -60,846 -242,116 -321,-234 -321,-234l25 -424z"/>
  <path class="fil1" d="M37176 10116c-121,1509 -544,2234 -1437,2234 -893,0 -1321,-598 -1437,-2234 -85,-1208 548,-1954 1437,-1954 889,0 1537,701 1437,1954z"/>
  <path class="fil5" d="M34995 10359c0,57 -40,103 -90,103 -50,0 -90,-46 -90,-103 0,-57 40,-103 90,-103 50,0 90,46 90,103z"/>
  <path class="fil5" d="M36630 10359c0,57 -40,103 -90,103 -50,0 -90,-46 -90,-103 0,-57 40,-103 90,-103 50,0 90,46 90,103z"/>
  <path class="fil35" d="M34597 10031c-13,0 -26,-5 -36,-14 -22,-20 -24,-54 -4,-76 84,-93 290,-289 588,-92 25,16 37,46 23,72 -13,26 -46,37 -72,23 -270,-137 -458,66 -460,69 -11,12 -25,18 -40,18z"/>
  <path class="fil35" d="M36915 10031c13,0 26,-5 36,-14 22,-20 24,-54 4,-76 -84,-93 -290,-289 -588,-92 -25,16 -37,46 -23,72 13,26 46,37 72,23 270,-137 458,66 460,69 11,12 25,18 40,18z"/>
  <path class="fil3" d="M35718 11230c-75,-2 -135,-23 -163,-79 -88,-173 78,-453 94,-488 11,-24 27,-38 51,-27 24,11 15,42 4,66 -51,113 -82,321 -35,401 8,13 21,29 58,32 26,2 44,25 43,51 -2,45 -50,43 -51,43z"/>
  <path class="fil6" d="M35721 11658c-240,0 -403,-115 -413,-123 -21,-15 -25,-44 -10,-65 15,-21 44,-25 65,-10 14,10 333,232 731,-2 22,-13 50,-6 63,16 13,22 6,50 -16,63 -153,90 -296,120 -419,120z"/>
  <path class="fil35" d="M36346 8867c0,0 -395,-121 -453,91 -58,212 -204,390 -463,422 -260,32 -33,378 -393,385 0,0 74,-95 47,-148 -26,-53 -53,-133 -16,-202 0,0 -688,367 -688,606l9 172 -111 0 -65 -211 -78 -700c0,0 -186,-148 -154,-297 32,-148 223,-292 254,-567 32,-276 254,-456 504,-419 249,37 297,-408 663,-238 366,170 478,-405 761,26 176,268 412,-101 468,345 0,0 552,37 493,233 -58,196 546,467 223,795l-85 820 -70 212 -115 0c0,0 -5,-397 -26,-498 -21,-101 -159,-429 -196,-615 -37,-186 -283,-286 -507,-214z"/>
  <path class="fil7" d="M34618 10820c0,0 -267,-737 -406,-862l-30 0c0,0 312,640 381,905l55 -43z"/>
  <path class="fil7" d="M34634 11508c0,0 -184,-416 -231,-576 0,0 17,339 243,661l-12 -85z"/>
  <path class="fil7" d="M36888 10854c0,0 235,-739 374,-872l37 3c0,0 -297,682 -365,947l-45 -78z"/>
  <path class="fil7" d="M36833 11515c0,0 208,-437 255,-597 0,0 -46,361 -255,683l0 -86z"/>
  <path class="fil8" d="M34511 10932c0,0 -17,-94 98,-142 115,-48 862,-298 1053,-298 191,0 1022,264 1206,330 67,24 75,80 74,193 0,44 -20,1382 -1280,1334 -1260,-48 -1152,-1417 -1152,-1417z"/>
  <path class="fil9" d="M35238 10787c-19,0 -37,-12 -45,-31 -9,-25 3,-52 27,-62 61,-24 373,-141 478,-133 104,8 398,120 431,133 25,9 37,37 28,62 -9,25 -37,37 -62,27 -87,-33 -328,-121 -404,-127 -65,-5 -302,75 -436,127 -6,2 -11,3 -17,3z"/>
  <path class="fil7" d="M35675 10706c0,0 24,1101 18,1165 -6,64 213,-430 -18,-1165z"/>
  <path class="fil36" d="M34818 12770l463 700 24 326 370 723 388 -699 38 -347 545 -704 530 513 -7 62c612,259 1937,1025 2043,1098 395,275 246,236 547,735 130,215 81,293 223,657 94,241 76,635 169,956 96,332 201,986 290,1403l-9584 0c0,0 -3,-722 185,-1307 74,-232 68,-663 157,-911 101,-280 164,-392 271,-632 133,-297 338,-648 460,-776 333,-348 1689,-1032 2282,-1285l24 -79 582 -434z"/>
  <path class="fil11" d="M35247 13549l-679 832 -332 -1081c0,0 165,804 284,1302l648 -852 99 69 -20 -270z"/>
  <path class="fil11" d="M36154 13549l679 832 332 -1081c0,0 -165,804 -284,1302l-648 -852 -99 69 20 -270z"/>
  <path class="fil11" d="M32709 18194c0,0 -119,-2274 -223,-2727l48 2727 175 0z"/>
  <path class="fil11" d="M38594 18194c0,0 119,-2274 223,-2727l-48 2727 -175 0z"/>
  <path class="fil11" d="M35653 18145c-18,0 -42,-14 -42,-32l0 -3467c0,-18 24,-32 42,-32 18,0 42,14 42,32l0 3467c0,18 -24,32 -42,32z"/>
  <polygon class="fil1" points="45662,18194 44517,18194 44666,16113 45845,16173 "/>
  <polygon class="fil1" points="50934,18194 52079,18194 51931,16113 50752,16173 "/>
  <path class="fil35" d="M48413 8048c0,0 -380,-246 -873,-143 -493,103 -620,596 -668,867 -48,270 -748,366 -437,1081 310,716 -755,413 -350,1185 406,771 -453,525 -318,1169 0,0 411,-135 753,21 263,120 373,657 903,454 607,-232 679,230 1140,201 350,-21 581,-508 1034,-277 530,270 477,-678 1227,-318 0,0 247,-210 -231,-639 -364,-327 498,-662 -95,-1275 -596,-616 329,-583 -482,-1435 -212,-223 -172,-742 -576,-971 -474,-268 -870,-111 -1027,80z"/>
  <path class="fil1" d="M47675 11611c0,0 44,1040 0,1206 -43,167 -895,591 -1313,787 0,0 981,593 2032,571 1050,-22 1692,-276 1859,-516 0,0 -1176,-473 -1196,-813 -19,-341 0,-1235 0,-1235l-1383 0z"/>
  <path class="fil3" d="M48357 12610c332,0 563,-236 693,-415 2,-302 8,-583 8,-583l-1383 0c0,0 12,281 17,570 111,181 324,429 665,429z"/>
  <path class="fil1" d="M47294 10383c0,0 -67,-197 -331,-174 -255,22 -169,678 56,786 225,108 299,-218 299,-218l-24 -394z"/>
  <path class="fil1" d="M49530 10383c0,0 67,-197 331,-174 255,22 169,678 -56,786 -225,108 -299,-218 -299,-218l24 -394z"/>
  <path class="fil1" d="M49747 10193c-112,1403 -649,2076 -1335,2076 -683,0 -1228,-556 -1335,-2076 -79,-1122 509,-1816 1335,-1816 826,0 1429,651 1335,1816z"/>
  <path class="fil5" d="M47766 10511c0,53 -37,96 -83,96 -46,0 -83,-43 -83,-96 0,-53 37,-96 83,-96 46,0 83,43 83,96z"/>
  <path class="fil5" d="M49194 10511c0,53 -37,96 -83,96 -46,0 -83,-43 -83,-96 0,-53 37,-96 83,-96 46,0 83,43 83,96z"/>
  <path class="fil35" d="M47377 10157c-12,-2 -23,-9 -30,-19 -17,-22 -12,-53 10,-70 93,-70 316,-212 553,21 20,19 26,48 9,70 -17,22 -48,25 -70,8 -222,-173 -429,-21 -432,-19 -12,9 -26,12 -39,9z"/>
  <path class="fil35" d="M49457 10147c12,-3 22,-9 30,-20 16,-23 10,-54 -12,-69 -95,-66 -323,-200 -552,41 -19,20 -24,49 -6,70 18,21 49,24 70,6 215,-181 428,-37 431,-35 12,8 26,11 40,8z"/>
  <path class="fil3" d="M48392 11228c-70,-2 -126,-21 -152,-73 -81,-161 73,-421 88,-453 10,-22 25,-35 47,-25 22,10 14,39 4,61 -47,105 -77,299 -33,372 7,12 20,27 54,30 24,2 41,23 40,48 -2,42 -46,40 -48,40z"/>
  <path class="fil6" d="M48362 11600c-186,0 -313,-89 -321,-95 -16,-12 -20,-34 -8,-50 12,-16 34,-20 50,-8 11,8 258,180 567,-2 17,-10 39,-4 49,13 10,17 4,39 -13,49 -119,70 -229,93 -325,93z"/>
  <path class="fil35" d="M47063 10287c0,0 263,-108 406,-481 262,-684 748,-221 945,-922 0,0 167,520 492,520 326,0 368,169 448,394 80,225 278,422 386,489l66 -100c0,0 409,-1915 -1392,-1915 -1644,0 -1431,1824 -1418,1937l68 78z"/>
  <path class="fil37" d="M47907 10812c4,-11 -1,-22 -11,-27 -11,-4 -23,1 -27,11 -4,10 1,22 11,27 11,4 23,-1 27,-11z"/>
  <path class="fil37" d="M47761 10939c4,-10 -1,-22 -11,-26 -10,-4 -22,1 -26,11 -4,10 1,22 11,26 10,4 22,-1 26,-11z"/>
  <path class="fil37" d="M47905 10982c2,-6 0,-13 -6,-15 -6,-2 -13,0 -15,6 -2,6 0,13 6,15 6,2 13,0 15,-6z"/>
  <path class="fil37" d="M47777 10823c2,-6 0,-13 -6,-15 -6,-2 -13,0 -15,6 -2,6 0,13 6,15 6,2 13,0 15,-6z"/>
  <path class="fil37" d="M48159 10759c2,-6 0,-13 -6,-15 -6,-2 -13,0 -15,6 -2,6 0,13 6,15 6,2 13,0 15,-6z"/>
  <path class="fil37" d="M47952 11094c2,-6 0,-13 -6,-15 -6,-2 -13,0 -15,6 -2,6 0,13 6,15 6,2 13,0 15,-6z"/>
  <path class="fil37" d="M48143 10967c2,-6 0,-13 -6,-15 -6,-2 -13,0 -15,6 -2,6 0,13 6,15 6,2 13,0 15,-6z"/>
  <path class="fil37" d="M47776 11069c2,-6 -1,-13 -6,-15 -6,-2 -13,0 -15,6 -2,6 0,13 6,15 6,2 13,0 15,-6z"/>
  <path class="fil37" d="M47465 10802c3,-6 0,-13 -6,-15 -6,-2 -13,0 -15,6 -2,6 1,13 6,15 6,2 13,0 15,-6z"/>
  <path class="fil37" d="M48043 10758c2,-6 -1,-13 -6,-15 -6,-2 -13,0 -15,6 -2,6 0,13 6,15 6,2 13,0 15,-6z"/>
  <path class="fil37" d="M47641 10827c2,-6 0,-13 -6,-15 -6,-2 -13,0 -15,6 -2,6 0,13 6,15 6,2 12,0 15,-6z"/>
  <path class="fil37" d="M47959 10891c2,-6 0,-13 -6,-15 -6,-2 -13,0 -15,6 -2,6 0,13 6,15 6,2 13,0 15,-6z"/>
  <path class="fil37" d="M47450 10891c2,-6 0,-13 -6,-15 -6,-2 -13,0 -15,6 -2,6 0,13 6,15 6,2 13,0 15,-6z"/>
  <path class="fil37" d="M48012 10987c4,-10 -1,-21 -10,-25 -10,-4 -21,1 -25,11 -4,10 1,21 11,25 10,4 21,-1 25,-11z"/>
  <path class="fil37" d="M47587 11000c4,-10 -1,-21 -11,-25 -10,-4 -21,1 -25,11 -4,10 1,21 11,25 10,4 21,-1 25,-11z"/>
  <path class="fil37" d="M48101 10884c4,-10 -1,-21 -11,-25 -10,-4 -21,1 -25,11 -4,10 1,21 11,25 10,4 21,-1 25,-11z"/>
  <path class="fil37" d="M48858 10812c-4,-11 1,-22 11,-27 11,-4 22,1 27,11 4,10 -1,22 -11,27 -11,4 -23,-1 -27,-11z"/>
  <path class="fil37" d="M49004 10939c-4,-10 1,-22 11,-26 10,-4 22,1 26,11 4,10 -1,22 -11,26 -10,4 -22,-1 -26,-11z"/>
  <path class="fil37" d="M48860 10982c-2,-6 0,-13 6,-15 6,-2 12,0 15,6 2,6 0,13 -6,15 -6,2 -12,0 -15,-6z"/>
  <path class="fil37" d="M48987 10823c-2,-6 0,-13 6,-15 6,-2 12,0 15,6 2,6 0,13 -6,15 -6,2 -12,0 -15,-6z"/>
  <path class="fil37" d="M48606 10759c-2,-6 0,-13 6,-15 6,-2 13,0 15,6 2,6 0,13 -6,15 -6,2 -13,0 -15,-6z"/>
  <path class="fil37" d="M48813 11094c-2,-6 0,-13 6,-15 6,-2 13,0 15,6 2,6 0,13 -6,15 -6,2 -13,0 -15,-6z"/>
  <path class="fil37" d="M48622 10967c-2,-6 0,-13 6,-15 6,-2 13,0 15,6 2,6 0,13 -6,15 -6,2 -13,0 -15,-6z"/>
  <path class="fil37" d="M48989 11069c-2,-6 0,-13 6,-15 6,-2 13,0 15,6 2,6 0,13 -6,15 -6,2 -12,0 -15,-6z"/>
  <path class="fil37" d="M49300 10802c-2,-6 1,-13 6,-15 6,-2 13,0 15,6 2,6 0,13 -6,15 -6,2 -13,0 -15,-6z"/>
  <path class="fil37" d="M48722 10758c-2,-6 0,-13 6,-15 6,-2 13,0 15,6 2,6 0,13 -6,15 -6,2 -13,0 -15,-6z"/>
  <path class="fil37" d="M49124 10827c-2,-6 0,-13 6,-15 6,-2 12,0 15,6 2,6 0,13 -6,15 -6,2 -13,0 -15,-6z"/>
  <path class="fil37" d="M48806 10891c-2,-6 0,-13 6,-15 6,-2 12,0 15,6 2,6 0,13 -6,15 -6,2 -13,0 -15,-6z"/>
  <path class="fil37" d="M49315 10891c-2,-6 0,-13 6,-15 6,-2 12,0 15,6 2,6 0,13 -6,15 -6,2 -13,0 -15,-6z"/>
  <path class="fil37" d="M48753 10987c-4,-10 1,-21 11,-25 10,-4 21,1 25,11 4,10 -1,21 -11,25 -10,4 -21,-1 -25,-11z"/>
  <path class="fil37" d="M49178 11000c-4,-10 1,-21 11,-25 10,-4 21,1 25,11 4,10 -1,21 -11,25 -10,4 -21,-1 -25,-11z"/>
  <path class="fil37" d="M48664 10884c-4,-10 1,-21 11,-25 10,-4 21,1 25,11 4,10 -1,21 -10,25 -10,4 -21,-1 -25,-11z"/>
  <path class="fil7" d="M47407 10971c0,0 -298,-624 -425,-777l-37 0c0,0 348,576 411,818l50 -41z"/>
  <path class="fil7" d="M47422 11594c0,0 -168,-379 -211,-525 0,0 15,309 222,603l-11 -78z"/>
  <path class="fil7" d="M49476 10993c0,0 179,-646 306,-799l26 0c0,0 -229,625 -291,867l-41 -69z"/>
  <path class="fil7" d="M49417 11600c0,0 145,-402 188,-547 0,0 20,333 -188,626l0 -79z"/>
  <path class="fil9" d="M47311 11069c0,0 -15,-86 90,-129 105,-44 786,-272 960,-272 174,0 932,241 1099,301 61,22 69,73 68,176 0,40 -19,1259 -1167,1215 -1148,-44 -1050,-1292 -1050,-1292z"/>
  <path class="fil7" d="M47973 10937c-18,0 -34,-11 -41,-28 -9,-22 3,-48 25,-56 56,-22 340,-129 436,-121 94,8 362,110 393,121 22,9 34,34 25,56 -9,22 -34,34 -56,25 -79,-30 -299,-110 -369,-116 -59,-5 -275,68 -397,116 -5,2 -10,3 -16,3z"/>
  <path class="fil13" d="M48371 10864c0,0 22,1004 17,1062 -6,58 194,-392 -17,-1062z"/>
  <path class="fil21" d="M48182 11518c0,-121 -98,-219 -219,-219 -121,0 -218,98 -218,219 0,121 98,219 218,219 121,0 219,-98 219,-219z"/>
  <path class="fil14" d="M48156 11518c0,-107 -86,-193 -193,-193 -107,0 -193,86 -193,193 0,107 86,193 193,193 107,0 193,-86 193,-193z"/>
  <path class="fil15" d="M47813 11611l293 0c0,0 -32,91 -147,90 -114,-1 -147,-90 -147,-90z"/>
  <path class="fil38" d="M46562 13469c0,0 815,304 1743,304 928,0 1763,-259 1763,-259 0,0 1106,412 1233,515 127,103 638,493 1021,2407l-1403 1758 -5248 0 -1268 -1628c0,0 327,-1725 751,-2276 424,-551 1408,-821 1408,-821z"/>
  <path class="fil39" d="M45845 18194c0,0 -119,-2274 -223,-2727l48 2727 175 0z"/>
  <path class="fil39" d="M50744 18194c0,0 119,-2274 222,-2727l-48 2727 -175 0z"/>
  <path class="fil1" d="M65331 11458c0,0 55,1299 0,1510 -55,211 -570,557 -1097,804 0,0 679,928 2004,900 1326,-27 1662,-576 1873,-878 0,0 -1011,-359 -1036,-789 -24,-430 0,-1547 0,-1547l-1745 0z"/>
  <path class="fil3" d="M66192 12693c420,0 711,-286 875,-511 2,-382 10,-724 10,-724l-1745 0c0,0 15,342 22,706 140,228 409,529 839,529z"/>
  <path class="fil1" d="M65039 10203c0,0 -72,-212 -356,-187 -274,24 -181,730 61,846 241,116 321,-234 321,-234l-25 -424z"/>
  <path class="fil1" d="M67445 10203c0,0 72,-212 356,-187 275,24 181,730 -60,846 -242,116 -321,-234 -321,-234l26 -424z"/>
  <path class="fil1" d="M67678 10148c-121,1509 -544,2234 -1436,2234 -893,0 -1322,-598 -1437,-2234 -86,-1208 547,-1954 1437,-1954 889,0 1537,701 1436,1954z"/>
  <path class="fil5" d="M65497 10391c0,57 -40,103 -90,103 -50,0 -90,-46 -90,-103 0,-57 40,-103 90,-103 50,0 90,46 90,103z"/>
  <path class="fil5" d="M67132 10391c0,57 -40,103 -89,103 -50,0 -90,-46 -90,-103 0,-57 40,-103 90,-103 50,0 89,46 89,103z"/>
  <path class="fil18" d="M65099 10062c-13,0 -25,-5 -36,-14 -22,-20 -24,-54 -4,-76 84,-93 290,-289 588,-92 25,16 37,46 24,72 -13,26 -46,37 -72,23 -270,-137 -458,66 -460,68 -10,12 -25,18 -40,18z"/>
  <path class="fil18" d="M67417 10062c13,0 26,-5 36,-14 22,-20 24,-54 4,-76 -84,-93 -290,-289 -588,-92 -25,16 -37,46 -24,72 13,26 46,37 72,23 270,-137 458,66 459,68 11,12 25,18 40,18z"/>
  <path class="fil3" d="M66220 11262c-75,-2 -135,-23 -163,-79 -88,-173 78,-453 94,-488 11,-24 27,-38 51,-27 24,11 15,42 4,66 -51,113 -82,321 -36,401 8,13 22,29 58,32 26,2 44,25 43,51 -2,45 -50,43 -51,43z"/>
  <path class="fil6" d="M66223 11690c-240,0 -403,-115 -413,-123 -21,-15 -25,-44 -10,-65 15,-21 44,-25 64,-10 15,10 333,232 731,-2 22,-13 50,-6 63,16 13,22 6,50 -16,63 -153,90 -296,120 -419,120z"/>
  <path class="fil18" d="M64548 9865c0,0 240,237 306,246 66,9 143,-273 143,-273 0,0 409,-28 552,-891 0,0 193,447 -143,828 0,0 194,93 427,-48 0,0 151,129 523,40 372,-89 526,75 777,-9 251,-84 366,146 423,128 0,0 59,163 93,168 85,14 98,-40 98,-40l88 -172c0,0 213,-158 235,-251 22,-93 -82,-201 -103,-358 -33,-246 0,-1431 -1133,-1657 -941,-187 -1225,199 -1225,199 0,0 -1026,-48 -1095,837 -47,607 -119,881 -186,957 -66,75 33,186 219,295z"/>
  <path class="fil7" d="M65120 10854c0,0 -257,-687 -396,-854l-40 0c0,0 312,633 381,898l55 -44z"/>
  <path class="fil7" d="M65136 11539c0,0 -184,-416 -232,-576 0,0 17,339 243,661l-12 -86z"/>
  <path class="fil7" d="M67390 10878c0,0 232,-711 371,-878l29 0c0,0 -286,687 -355,952l-45 -74z"/>
  <path class="fil7" d="M67333 11546c0,0 195,-432 242,-592 0,0 -20,356 -242,678l0 -86z"/>
  <path class="fil9" d="M65014 10963c0,0 -17,-94 98,-142 116,-48 863,-298 1053,-298 191,0 1023,264 1206,330 67,24 75,80 74,193 0,44 -20,1382 -1281,1334 -1260,-48 -1151,-1417 -1151,-1417z"/>
  <path class="fil7" d="M65740 10819c-19,0 -37,-12 -45,-31 -9,-25 3,-52 27,-62 61,-24 373,-141 478,-133 104,8 398,120 431,133 25,9 37,37 27,62 -9,25 -37,37 -61,27 -87,-33 -328,-121 -404,-127 -65,-5 -302,75 -436,127 -6,2 -11,3 -17,3z"/>
  <path class="fil13" d="M66177 10738c0,0 24,1101 18,1165 -6,64 212,-430 -18,-1165z"/>
  <path class="fil38" d="M64985 13265c0,0 236,508 1164,508 928,0 1107,-510 1107,-510 0,0 2271,846 2398,949 127,103 797,1051 1285,3982l-9436 0c0,0 593,-3134 1018,-3685 424,-551 2465,-1244 2465,-1244z"/>
  <path class="fil39" d="M63211 18194c0,0 -119,-2274 -222,-2727l48 2727 174 0z"/>
  <path class="fil39" d="M69096 18194c0,0 120,-2274 223,-2727l-48 2727 -175 0z"/>
 </g>
</svg>
